<svg viewBox="0 0 32 32" xmlns="http://www.w3.org/2000/svg"><path d="m16.5 4.5v2c4.984375 0 9 4.015625 9 9h2c0-6.0625-4.9375-11-11-11zm0 4v2c2.773438 0 5 2.226563 5 5h2c0-3.855469-3.144531-7-7-7zm-8.59375.09375-.6875.6875c-4.269531 4.269531-4.269531 11.230469 0 15.5s11.230469 4.269531 15.5 0l.6875-.6875-.6875-.71875-5.5-5.5c1.023438-.3125 1.78125-1.246094 1.78125-2.375 0-1.378906-1.121094-2.5-2.5-2.5-1.128906 0-2.0625.757813-2.375 1.78125l-5.5-5.5zm.15625 2.96875 12.375 12.375c-3.519531 2.792969-8.554687 2.695313-11.8125-.5625-3.257812-3.257812-3.355469-8.292969-.5625-11.8125z"/></svg>